<svg width="24" height="24" viewBox="0 0 24 24" fill="none" xmlns="http://www.w3.org/2000/svg">
<rect width="24" height="24" fill="#F8F8F8"/>
<path d="M17.92 21H6.07999C5.94165 21.0004 5.80473 20.9722 5.67788 20.917C5.55103 20.8618 5.43701 20.7809 5.34302 20.6794C5.24904 20.5779 5.17713 20.458 5.13186 20.3273C5.08658 20.1966 5.06892 20.0579 5.07999 19.92L5.92999 8.92001C5.95014 8.66889 6.06433 8.43463 6.24973 8.26407C6.43512 8.0935 6.67807 7.9992 6.92999 8.00001H17.07C17.3219 7.9992 17.5649 8.0935 17.7502 8.26407C17.9356 8.43463 18.0498 8.66889 18.07 8.92001L18.92 19.92C18.9311 20.0579 18.9134 20.1966 18.8681 20.3273C18.8228 20.458 18.7509 20.5779 18.657 20.6794C18.563 20.7809 18.4489 20.8618 18.3221 20.917C18.1952 20.9722 18.0583 21.0004 17.92 21V21Z" stroke="black" stroke-width="2" stroke-linecap="round" stroke-linejoin="round"/>
<path d="M9 11V6C9 5.20435 9.31607 4.44129 9.87868 3.87868C10.4413 3.31607 11.2044 3 12 3V3C12.7956 3 13.5587 3.31607 14.1213 3.87868C14.6839 4.44129 15 5.20435 15 6V11" stroke="black" stroke-width="2" stroke-linecap="round" stroke-linejoin="round"/>
</svg>
